<?xml version="1.0" encoding="utf-8"?>
<svg xmlns="http://www.w3.org/2000/svg" xmlns:xlink="http://www.w3.org/1999/xlink" style="margin: auto; background: none; display: block; shape-rendering: auto;" width="200px" height="200px" viewBox="0 0 100 100" preserveAspectRatio="xMidYMid">
    <g transform="translate(50 50)">
        <g>
            <animateTransform attributeName="transform" type="rotate" values="0;45" keyTimes="0;1" dur="0.13755158184319122s" repeatCount="indefinite"></animateTransform>
            <path d="M7.745966692414834 -2 L12.745966692414834 -2 L12.745966692414834 2 L7.745966692414834 2 A8 8 0 0 1 6.891439137424756 4.063012012678566 L6.891439137424756 4.063012012678566 L10.426973043357494 7.598545918611304 L7.598545918611305 10.426973043357494 L4.063012012678567 6.891439137424756 A8 8 0 0 1 2 7.745966692414834 L2 7.745966692414834 L2.0000000000000004 12.745966692414834 L-1.999999999999999 12.745966692414834 L-1.9999999999999991 7.745966692414834 A8 8 0 0 1 -4.0630120126785645 6.891439137424757 L-4.0630120126785645 6.891439137424757 L-7.598545918611302 10.426973043357496 L-10.426973043357494 7.598545918611303 L-6.891439137424756 4.063012012678565 A8 8 0 0 1 -7.745966692414833 2.000000000000002 L-7.745966692414833 2.000000000000002 L-12.745966692414832 2.0000000000000027 L-12.745966692414834 -1.9999999999999998 L-7.745966692414834 -2.0000000000000004 A8 8 0 0 1 -6.891439137424758 -4.063012012678564 L-6.891439137424758 -4.063012012678564 L-10.426973043357496 -7.5985459186113005 L-7.598545918611304 -10.426973043357492 L-4.063012012678566 -6.891439137424756 A8 8 0 0 1 -2.0000000000000027 -7.745966692414833 L-2.0000000000000027 -7.745966692414833 L-2.0000000000000036 -12.745966692414832 L1.999999999999999 -12.745966692414834 L1.9999999999999998 -7.745966692414834 A8 8 0 0 1 4.063012012678564 -6.891439137424758 L4.063012012678564 -6.891439137424758 L7.5985459186113005 -10.426973043357496 L10.426973043357492 -7.598545918611304 L6.891439137424756 -4.063012012678566 A8 8 0 0 1 7.745966692414833 -2.000000000000003 M0 -4A4 4 0 1 0 0 4 A4 4 0 1 0 0 -4" fill="#0a0a0a"></path>
        </g>
    </g>
</svg>